<svg width="51" height="54" viewBox="0 0 51 54" fill="none" xmlns="http://www.w3.org/2000/svg">
<path d="M49.4808 28.7864C49.4797 42.2001 38.6059 53.0739 25.1922 53.075C24.7424 53.075 24.2927 53.066 23.8429 53.03C10.9739 52.3178 0.903875 41.675 0.903875 28.7864C0.903875 15.8979 10.9739 5.25506 23.8429 4.54288C24.2927 4.50687 24.7424 4.49786 25.1922 4.49786C38.6059 4.49894 49.4797 15.3727 49.4808 28.7864Z" fill="#FAA682"/>
<path d="M46.782 28.7864C46.782 29.1822 46.773 29.569 46.7549 29.9558C46.1527 42.3795 36.2619 52.3403 23.8428 53.03C10.9739 52.3178 0.903875 41.675 0.903875 28.7864C0.903875 15.8979 10.9739 5.25509 23.8429 4.54291C36.7115 5.25552 46.7814 15.898 46.782 28.7864Z" fill="#A4FAE8"/>
<path d="M44.9829 4.49786V8.99572H32.3888V4.49786C32.3884 3.54346 32.7675 2.62807 33.4424 1.95318C34.1173 1.2783 35.0327 0.899322 35.9871 0.899536H41.3846C42.339 0.899215 43.2544 1.2783 43.9293 1.95318C44.6041 2.62807 44.9831 3.54346 44.9829 4.49786Z" fill="#FAA682"/>
<path d="M41.3846 0.899536C40.4302 0.899215 39.5148 1.2783 38.8399 1.95318C38.165 2.62807 37.786 3.54346 37.7862 4.49786V49.5577C33.9913 51.8653 29.6337 53.0823 25.1922 53.075C24.7334 53.075 24.2747 53.066 23.8249 53.0299C19.4917 52.7983 15.3019 51.3997 11.6985 48.9818V4.49786C11.6982 3.54346 12.0773 2.62807 12.7522 1.95318C13.4271 1.2783 14.3425 0.899322 15.2969 0.899536H41.3846Z" fill="#FAA682"/>
<path d="M38.6858 0.899536C37.7314 0.899215 36.816 1.2783 36.1411 1.95318C35.4662 2.62807 35.0872 3.54346 35.0874 4.49786V49.5577C31.6795 51.6315 27.8089 52.8248 23.8247 53.0301C19.4916 52.7984 15.3018 51.3998 11.6984 48.9819V4.49786C11.6981 3.54346 12.0772 2.62807 12.7521 1.95318C13.427 1.2783 14.3424 0.899322 15.2968 0.899536H38.6858Z" fill="#81D3FA"/>
<path d="M40.1071 36.7386C39.4236 37.7605 38.0485 38.0482 37.0126 37.3863C37.0036 37.3773 36.9946 37.3773 36.9856 37.3683L36.8417 37.2694C37.8273 37.9715 38.0781 39.329 37.4085 40.337C37.0788 40.8353 36.5642 41.1819 35.9785 41.3001C35.3928 41.4183 34.784 41.2982 34.2869 40.9666L32.8027 39.9411C33.7469 40.6847 33.9726 42.0235 33.3244 43.0356C32.9947 43.5339 32.4802 43.8805 31.8945 43.9987C31.3087 44.117 30.7 43.9969 30.2029 43.6653L28.7456 42.6309C28.8305 42.7015 28.9116 42.7765 28.9885 42.8557C29.8351 43.6605 29.9258 44.9789 29.1976 45.8921C28.4693 46.8054 27.1638 47.0103 26.1908 46.364L22.4485 43.8632H22.4395L8.77499 35.0833L8.28927 34.6965L6.18412 33.0144L13.2008 22.4894H24.2926L30.2478 27.59L30.5897 27.8869L38.0472 32.6906L39.4866 33.6171C39.796 33.828 40.0517 34.1083 40.2333 34.4358V34.4448C40.6114 35.1754 40.5632 36.0538 40.1071 36.7386Z" fill="#FAA682"/>
<path d="M38.308 35.5062C37.6244 36.528 36.2493 36.8158 35.2135 36.1539C35.2045 36.1449 35.1955 36.1449 35.1865 36.1359L35.0425 36.037C36.0281 36.7391 36.2789 38.0966 35.6093 39.1046C35.2796 39.6029 34.7651 39.9495 34.1793 40.0676C33.5936 40.1859 32.9849 40.0658 32.4878 39.7342L31.0035 38.7086C31.9477 39.4522 32.1735 40.7911 31.5252 41.8031C31.1956 42.3015 30.681 42.6481 30.0953 42.7663C29.5096 42.8845 28.9008 42.7645 28.4037 42.4329L26.9465 41.3984C27.0313 41.4691 27.1125 41.5441 27.1893 41.6233C28.0358 42.4281 28.1265 43.7465 27.3983 44.6596C26.6702 45.5727 25.3647 45.7778 24.3917 45.1316L20.6494 42.6308H20.6404L8.28927 34.6965L6.18412 33.0144L13.2008 22.4894H23.9328L28.7905 26.6545L30.2478 27.59L37.6873 32.3847C37.8191 32.4719 37.9399 32.5745 38.0471 32.6906C38.1984 32.8434 38.3286 33.0159 38.4339 33.2033V33.2123C38.8122 33.943 38.764 34.8214 38.308 35.5062Z" fill="#FAA682"/>
<path d="M11.3317 40.5848C10.529 39.637 10.6468 38.2178 11.5947 37.4152L14.3973 35.2492C15.3452 34.4465 16.7643 34.5643 17.567 35.5122C17.9524 35.9674 18.1412 36.557 18.0919 37.1514C18.0426 37.7458 17.7591 38.2963 17.3039 38.6818L14.5013 40.8478C13.5534 41.6505 12.1343 41.5327 11.3317 40.5848Z" fill="#A4FAE8"/>
<path d="M8.14158 37.9285C7.83656 37.5682 7.68715 37.1016 7.72616 36.6312C7.76518 36.1608 7.9895 35.7251 8.34972 35.4201L10.5677 33.7059C11.3178 33.0707 12.4409 33.1639 13.0761 33.9141C13.7113 34.6642 13.6181 35.7873 12.8679 36.4224L10.6499 38.1366C9.89991 38.7718 8.77681 38.6786 8.14158 37.9285Z" fill="#A4FAE8"/>
<path d="M17.9042 45.0652C17.2701 44.3036 17.3733 43.1722 18.1347 42.5379L20.3878 40.7939C21.1389 40.1474 22.272 40.2321 22.9186 40.9831C23.5527 41.7447 23.4495 42.8761 22.6882 43.5104L20.435 45.2544C19.6839 45.9009 18.5509 45.8162 17.9042 45.0652Z" fill="#A4FAE8"/>
<path d="M14.401 43.2883C14.096 42.928 13.9466 42.4614 13.9856 41.991C14.0246 41.5206 14.2489 41.0849 14.6091 40.7799L17.9579 38.1661C18.3182 37.8611 18.7848 37.7116 19.2552 37.7507C19.7256 37.7897 20.1613 38.014 20.4663 38.3742C21.1015 39.1244 21.0083 40.2475 20.2581 40.8827L16.9093 43.4964C16.5491 43.8014 16.0825 43.9508 15.6121 43.9118C15.1417 43.8728 14.706 43.6485 14.401 43.2883Z" fill="#A4FAE8"/>
<path d="M13.9295 21.3919L13.2008 22.4894L6.18412 33.0144L5.86923 33.4823C5.60837 33.8783 5.08524 34.0041 4.67283 33.7701L2.10007 32.2949L11.2577 18.2885L13.7316 20.1775C14.1028 20.4695 14.1889 20.9971 13.9295 21.3919Z" fill="#A4FAE8"/>
<path d="M40.2331 34.4448V34.4358L43.1836 31.4853L36.9675 22.3865L33.2883 23.3891L29.634 21.833C26.3887 21.2103 25.0018 21.9282 24.4761 22.3779C24.365 22.468 24.2701 22.5761 24.195 22.6979C23.6651 23.1325 23.0921 23.5118 22.4852 23.83C21.8442 24.1755 21.4946 24.8907 21.6156 25.6087C21.7366 26.3267 22.3013 26.8878 23.0201 27.0042C24.6695 27.2257 26.347 26.9297 27.8211 26.1573L30.5406 27.887L40.2331 34.4448Z" fill="#A4FAE8"/>
<path d="M11.2577 18.2883L2.10007 32.2947L1.0835 31.719C0.316979 25.4633 2.01743 19.1552 5.82422 14.1323L11.2577 18.2883Z" fill="#A4FAE8"/>
<path d="M48.2842 32.2948L45.7115 33.77C45.2991 34.0041 44.7758 33.8782 44.5151 33.4822L43.1837 31.4851L36.9676 22.1655L36.4549 21.3919C36.1955 20.9971 36.2816 20.4696 36.6529 20.1775L39.1267 18.2885L48.2842 32.2948Z" fill="#A4FAE8"/>
<path d="M49.4808 28.7865C49.4799 29.7667 49.4199 30.7461 49.3008 31.7191L48.2842 32.2949L46.7549 29.956C46.773 29.5692 46.782 29.1824 46.782 28.7866C46.7912 24.0548 45.4084 19.4246 42.8058 15.4729L44.56 14.1325C47.7589 18.3474 49.4874 23.4951 49.4808 28.7865Z" fill="#FAA682"/>
<path d="M46.782 28.7864C46.782 29.1822 46.773 29.569 46.7549 29.9558L39.1266 18.2883L42.8058 15.4727C45.4085 19.4244 46.7912 24.0546 46.782 28.7864Z" fill="#A4FAE8"/>
<path d="M1.64265 22.8258C1.49743 23.4014 1.3776 23.9866 1.27429 24.5777C1.25649 24.6793 1.23817 24.7805 1.22166 24.8825C1.12863 25.4578 1.05575 26.0394 1.00302 26.6274C0.994021 26.7284 0.98834 26.83 0.980731 26.9314C0.934431 27.5442 0.903671 28.1616 0.903671 28.7864C0.903671 29.2574 0.921034 29.7243 0.947506 30.1887C0.952329 30.2705 0.959832 30.3513 0.965512 30.4328C0.992628 30.8371 1.0295 31.2386 1.07612 31.6372C1.07933 31.6643 1.0803 31.6921 1.08362 31.7191L1.0863 31.7206C1.93899 38.7446 5.81469 45.0465 11.6985 48.9763V48.9819C11.7261 49.0003 11.7555 49.0163 11.7831 49.0346C12.1675 49.2896 12.5593 49.5339 12.9586 49.7674C13.0643 49.8291 13.1728 49.8865 13.2794 49.9467C13.5826 50.1178 13.8898 50.2824 14.2007 50.4407C14.3475 50.5154 14.4944 50.5897 14.643 50.6615C14.9767 50.8225 15.3148 50.976 15.657 51.122C15.8129 51.1887 15.9696 51.2538 16.127 51.3175C16.4701 51.4556 16.8171 51.5861 17.1677 51.709C17.3526 51.7736 17.5392 51.8341 17.726 51.8944C18.0032 51.9838 18.2825 52.0679 18.564 52.1469C18.7448 52.198 18.9242 52.2516 19.1068 52.2987C19.5305 52.4078 19.9587 52.5059 20.3911 52.5927C20.5604 52.6265 20.7321 52.6534 20.9028 52.6837C21.2186 52.7398 21.5361 52.79 21.8556 52.8343C22.035 52.8588 22.2144 52.8829 22.3951 52.9034C22.8207 52.9519 23.2492 52.991 23.6813 53.0173C23.7296 53.0202 23.7766 53.0274 23.825 53.0301C24.2748 53.0661 24.7335 53.0751 25.1923 53.0751C25.6364 53.0751 26.0752 53.0538 26.5132 53.0292C26.4685 53.0262 26.4247 53.0201 26.3799 53.0174C25.9479 52.9911 25.5194 52.952 25.0938 52.9035C24.9131 52.8829 24.7337 52.8589 24.5543 52.8345C24.2345 52.7907 23.9169 52.7405 23.6015 52.6838C23.4308 52.6535 23.2591 52.6266 23.0897 52.5928C22.6574 52.5063 22.2292 52.4083 21.8055 52.2988C21.623 52.2518 21.4435 52.1982 21.2627 52.147C20.9814 52.0675 20.702 51.9833 20.4247 51.8945C20.2379 51.8343 20.0513 51.7737 19.8664 51.7091C19.5156 51.5865 19.1687 51.456 18.8256 51.3176C18.668 51.2541 18.5113 51.189 18.3557 51.1221C18.0136 50.976 17.6756 50.8225 17.3417 50.6616C17.1931 50.5898 17.0462 50.5155 16.8994 50.4408C16.5882 50.2827 16.2811 50.118 15.9781 49.9468C15.8714 49.8866 15.763 49.8292 15.6573 49.7675C15.258 49.5343 14.8661 49.29 14.4818 49.0347C14.4541 49.0164 14.4248 49.0004 14.3972 48.982V48.9764C8.51338 45.0466 4.63768 38.7446 3.78499 31.7207L3.7822 31.7192C3.77888 31.6921 3.77792 31.6644 3.7747 31.6373C3.72808 31.2387 3.69121 30.8372 3.6641 30.433C3.65842 30.3514 3.65091 30.2706 3.64609 30.1888C3.61973 29.7244 3.60236 29.2577 3.60236 28.7866C3.60236 28.1618 3.63312 27.5445 3.67942 26.9316C3.68703 26.8302 3.69271 26.7286 3.70172 26.6276C3.75359 26.0395 3.82636 25.4578 3.92035 24.8827C3.93686 24.7807 3.95519 24.6795 3.97298 24.5779C4.0763 23.9869 4.19612 23.4016 4.34134 22.826C4.34799 22.7999 4.35592 22.7744 4.36267 22.7483C4.51229 22.1639 4.68506 21.5889 4.87615 21.0224C4.89244 20.974 4.90702 20.9251 4.92363 20.8768C5.11858 20.3109 5.33615 19.756 5.57076 19.2098C5.5997 19.1428 5.62874 19.0759 5.65811 19.0092C5.90043 18.4591 6.16001 17.9187 6.44103 17.3908C6.454 17.3665 6.46803 17.3427 6.48111 17.3183C7.05954 16.2423 7.71824 15.2115 8.45176 14.2346C8.47662 14.2014 8.49806 14.1655 8.52303 14.1323L8.52656 14.135C10.1625 11.9759 12.1465 10.1041 14.3972 8.5966V4.49786C14.3969 3.54346 14.776 2.62807 15.4509 1.95318C16.1258 1.2783 17.0412 0.899322 17.9956 0.899536H15.2969C14.3425 0.899215 13.4271 1.2783 12.7522 1.95318C12.0773 2.62807 11.6983 3.54346 11.6985 4.49786V8.59638C9.44774 10.1039 7.4637 11.9757 5.82777 14.135L5.82423 14.1323C5.79915 14.1655 5.77782 14.2014 5.75296 14.2346C5.01944 15.2115 4.36074 16.2422 3.78231 17.3183C3.76924 17.3426 3.7552 17.3664 3.74223 17.3908C3.46121 17.9186 3.20163 18.459 2.95931 19.0092C2.92983 19.0759 2.90079 19.1428 2.87207 19.2098C2.63735 19.7559 2.41978 20.3109 2.22494 20.8768C2.20832 20.9251 2.19375 20.9739 2.17746 21.0224C1.98636 21.5889 1.8136 22.1639 1.66398 22.7483C1.65723 22.7742 1.64919 22.7997 1.64265 22.8258Z" fill="white"/>
<path d="M15.2969 6.10352e-05H26.9914H41.3846V1.79922H26.9914H15.2969V6.10352e-05Z" fill="white"/>
<path d="M23.1322 1.53824C23.2134 1.45229 23.2775 1.35165 23.3211 1.24179C23.3673 1.13355 23.3918 1.01726 23.393 0.899582C23.3894 0.661437 23.2963 0.433473 23.1322 0.26092C22.7774 -0.0869733 22.2095 -0.0869733 21.8547 0.26092L21.7467 0.395747C21.7125 0.445906 21.6852 0.500458 21.6655 0.557798C21.6396 0.608813 21.6215 0.663473 21.6119 0.719955C21.6018 0.77933 21.5957 0.839349 21.5939 0.899582C21.5972 1.13773 21.6903 1.3659 21.8547 1.53824C22.2128 1.87788 22.774 1.87788 23.1322 1.53824Z" fill="#263238"/>
<path d="M15.2969 1.79965H18.8952C19.3921 1.79965 19.7947 1.39688 19.7947 0.900124C19.7947 0.403363 19.3919 0.000595457 18.8952 0.000595457H15.2969C12.8139 0.00348921 10.8019 2.01561 10.799 4.49845V8.12915C8.64241 9.63336 6.73382 11.4651 5.14215 13.5581C5.13261 13.5694 5.11889 13.5745 5.10989 13.5863C5.09992 13.5994 5.09831 13.6155 5.0891 13.629C-2.75147 24.0106 -1.39645 38.655 8.21585 47.4218C17.8281 56.1886 32.5352 56.1933 42.153 47.4327C51.7709 38.6722 53.1355 24.0286 45.3016 13.6419C45.29 13.6242 45.2876 13.6033 45.2745 13.5862C45.2648 13.5735 45.25 13.5678 45.2396 13.5557C44.227 12.2254 43.0845 10.9994 41.8288 9.89573H44.9828C45.4797 9.89573 45.8823 9.49296 45.8823 8.9962V4.49834C45.8794 2.0154 43.8673 0.00338203 41.3845 0.000488281H26.0917C25.5949 0.000488281 25.1922 0.403256 25.1922 0.900016C25.1922 1.39678 25.595 1.79954 26.0917 1.79954H37.8093C37.2142 2.57368 36.8901 3.52186 36.8867 4.49824V18.8671L36.1 19.4686C35.3897 20.0302 35.2032 21.03 35.6634 21.8098L33.3534 22.4392L29.9862 21.0055C29.9275 20.9804 29.8662 20.9616 29.8035 20.9498C26.5767 20.3298 24.9011 20.9264 24.0323 21.5901H14.8377C15.1491 20.8358 14.9202 19.9665 14.2779 19.4633L12.5983 18.179V4.49834C12.5998 3.00849 13.8071 1.80126 15.2969 1.79965ZM6.00985 15.4071L10.0474 18.496L1.91293 30.9375C1.84745 30.2258 1.80319 29.5098 1.80319 28.7868C1.80094 24.0013 3.26946 19.3305 6.00985 15.4071ZM2.27648 33.4369L4.23051 34.5537C4.49974 34.7061 4.80401 34.786 5.11343 34.7856C5.57182 34.7848 6.01285 34.6099 6.34713 34.2962L7.38984 35.1289C6.6066 36.1287 6.63382 37.5412 7.45501 38.5101C8.0568 39.229 8.99298 39.5776 9.91845 39.4272C9.97557 40.0682 10.2294 40.676 10.6453 41.1671C10.692 41.2223 10.7491 41.2649 10.799 41.3163V47.2125C6.40618 43.7839 3.3835 38.8982 2.27648 33.4369ZM13.6791 23.3894H21.5751C20.8211 24.0511 20.5173 25.0889 20.7952 26.0528C21.0731 27.0168 21.8828 27.7334 22.8733 27.8922C24.5374 28.1277 26.2341 27.8832 27.7639 27.1876L30.0577 28.6464C30.1093 28.6764 30.164 28.701 30.2207 28.7199L38.9879 34.3663C39.1616 34.486 39.3077 34.6416 39.4162 34.8226L39.4302 34.8521C39.7176 35.3964 39.6028 36.066 39.1505 36.4835C38.6982 36.901 38.0216 36.962 37.5019 36.632L37.49 36.624L31.587 32.543C31.1782 32.2615 30.6188 32.3642 30.3365 32.7724C30.0544 33.1807 30.1558 33.7402 30.5634 34.0233L36.2855 37.9792C36.9005 38.3907 37.0676 39.2219 36.6593 39.8392C36.2509 40.4564 35.4207 40.6279 34.8013 40.2228L28.889 36.1426C28.48 35.8605 27.9197 35.9633 27.6376 36.3723C27.3556 36.7813 27.4583 37.3416 27.8673 37.6237L32.1861 40.604C32.81 41.0424 32.9805 41.8929 32.5738 42.538C32.1678 43.1515 31.3445 43.3253 30.7251 42.9284L27.5115 40.6474C27.1064 40.3613 26.5461 40.4571 26.259 40.8616C25.972 41.266 26.0667 41.8266 26.4705 42.1145L28.1309 43.2929C28.2148 43.3586 28.294 43.4302 28.3676 43.5073C28.876 43.9901 28.9311 44.7813 28.4947 45.33C28.0583 45.8788 27.275 46.0031 26.6901 45.6165L23.7479 43.6501C24.299 42.8676 24.3871 41.8494 23.9787 40.9838C23.5702 40.1183 22.7282 39.5391 21.7738 39.467C21.7664 38.8541 21.5469 38.2628 21.1525 37.7935C20.6135 37.1611 19.8118 36.8145 18.9818 36.8552C18.9523 35.7489 18.3398 34.7407 17.3716 34.2049C16.4033 33.669 15.2238 33.6853 14.2708 34.2477C13.9385 33.216 13.0189 32.4851 11.9389 32.3942C11.2443 32.332 10.5534 32.5478 10.0177 32.9942L8.78913 33.9442L7.38824 32.8254L13.6791 23.3894ZM16.3282 42.8102C16.0564 43.0402 15.6729 43.0838 15.3563 42.9209C15.0397 42.758 14.8525 42.4205 14.8818 42.0657C14.8977 41.8447 14.9983 41.6383 15.1625 41.4894L17.2253 39.8788L17.8848 39.3687C17.8922 39.3625 17.8972 39.3547 17.9045 39.3483L18.5389 38.853C18.718 38.7038 18.9482 38.63 19.1807 38.6474C19.4134 38.6667 19.6289 38.7776 19.7798 38.9558C19.9307 39.1339 20.0047 39.3647 19.9854 39.5975C19.9694 39.8186 19.8689 40.0249 19.7047 40.1738L17.8119 41.6518L17.5538 41.8518L17.5476 41.8582L16.3282 42.8102ZM8.89963 36.1324L11.1495 34.3929C11.3077 34.2581 11.5087 34.1842 11.7165 34.1843C11.7411 34.1843 11.7657 34.1856 11.7908 34.1874C12.275 34.2281 12.6348 34.6532 12.5951 35.1375C12.5794 35.3572 12.4801 35.5626 12.3175 35.7111L10.069 37.4505C9.70356 37.7595 9.15835 37.7203 8.84079 37.3624C8.52302 37.0044 8.54927 36.4583 8.89963 36.1324ZM12.0183 40.0039C11.786 39.7315 11.6726 39.3772 11.7034 39.0205C11.7285 38.6768 11.8867 38.3564 12.1444 38.1275L14.9784 35.9362C15.537 35.4625 16.3716 35.521 16.8587 36.0679C17.3459 36.6148 17.3078 37.4505 16.7729 37.9509L16.0905 38.4836L13.9199 40.1617C13.6482 40.3954 13.2933 40.5092 12.9364 40.4767C12.5794 40.4481 12.2488 40.2779 12.0183 40.0039ZM18.6829 43.2531L18.921 43.0671L20.9689 41.4806C21.2039 41.2679 21.535 41.1977 21.8361 41.297C22.1372 41.3963 22.3617 41.6496 22.424 41.9604C22.4862 42.2712 22.3768 42.5916 22.1373 42.7992L19.8541 44.568C19.6197 44.7804 19.2893 44.8508 18.9886 44.7523C18.688 44.6538 18.4634 44.4015 18.4001 44.0914C18.3368 43.7816 18.4448 43.4615 18.6829 43.2531ZM12.5982 48.4809V42.235C12.662 42.2442 12.7227 42.2642 12.7874 42.2695C12.877 42.277 12.9658 42.281 13.0545 42.281C13.0679 42.281 13.0807 42.2777 13.0941 42.2776C13.1194 42.8622 13.3374 43.4221 13.7142 43.8698V43.8702C14.2264 44.474 14.9785 44.8216 15.7703 44.8203C16.0859 44.8197 16.399 44.7628 16.6945 44.652C16.7952 45.0175 16.9735 45.3569 17.2176 45.647V45.6474C17.7286 46.2484 18.4786 46.5938 19.2675 46.5913C19.8963 46.5932 20.5053 46.3717 20.9859 45.9662L22.3707 44.8934L25.6946 47.1153C26.6129 47.7274 27.7849 47.8131 28.7826 47.3413C29.7802 46.8695 30.4574 45.9091 30.567 44.811C31.4671 45.0833 32.4423 44.9338 33.2196 44.4043C33.9968 43.8747 34.4927 43.0218 34.5685 42.0843C34.8789 42.1867 35.2035 42.2394 35.5303 42.2406C35.7405 42.2405 35.9501 42.2196 36.1562 42.1782C36.4091 42.124 36.6545 42.0388 36.8866 41.9245V49.0321C29.3268 53.414 19.9515 53.2013 12.5982 48.4809ZM38.6858 47.8895V38.5831C39.5679 38.4677 40.3579 37.9785 40.8544 37.2402C41.356 36.4836 41.5073 35.5477 41.2698 34.6716L43.0438 32.8976L43.7639 33.978C44.2884 34.7667 45.3327 35.0169 46.1578 34.5516L48.1219 33.429C46.9546 39.2839 43.5749 44.4633 38.6858 47.8895ZM37.1995 20.8927L38.9029 19.5903L47.0095 31.9893L45.2635 32.9839L37.1995 20.8927ZM48.4725 30.9394L40.336 18.4946L44.3628 15.4157C47.1028 19.3366 48.5751 24.0034 48.581 28.7869C48.5811 29.5117 48.5369 30.2279 48.4725 30.9394ZM44.0833 4.49834V8.09667H38.6858V4.49834C38.6858 3.00785 39.8941 1.79965 41.3845 1.79965C42.875 1.79965 44.0833 3.00785 44.0833 4.49834ZM38.6858 9.89583H38.96C40.567 11.0683 42.0173 12.4416 43.2758 13.9821L38.6858 17.4915V9.89583ZM29.3712 22.699L32.9361 24.217C33.1222 24.2964 33.3295 24.3107 33.5247 24.2574L36.7061 23.3906L42.0261 31.3711L40.2768 33.1204C40.1813 33.0278 40.08 32.9412 39.9736 32.8614L31.0766 27.131C31.0352 27.1108 30.9922 27.0939 30.9481 27.0808L28.3036 25.3986C28.0223 25.221 27.6663 25.212 27.3763 25.3754C26.0804 26.0424 24.6126 26.3009 23.1666 26.1168C22.8289 26.0776 22.5588 25.818 22.5064 25.4821C22.4399 25.1314 22.6111 24.7786 22.9276 24.6138C23.6017 24.2633 24.2349 23.8392 24.8155 23.3492C24.8775 23.2971 24.9287 23.2332 24.9657 23.1612C24.9935 23.1247 25.0253 23.0913 25.0606 23.062C25.3248 22.8364 26.4115 22.1503 29.3712 22.699ZM5.11911 32.9896L3.37332 31.9918L11.4803 19.5922L13.1811 20.8932L5.11911 32.9896ZM7.10015 13.9756C8.19613 12.6381 9.43658 11.4261 10.799 10.3613V16.8035L7.10015 13.9756Z" fill="#263238"/>
</svg>
