<svg width="54" height="54" viewBox="0 0 54 54" fill="none" xmlns="http://www.w3.org/2000/svg">
<path d="M53.1 20.6959V51.2959C53.0971 52.2888 52.2929 53.093 51.3 53.0959H2.7C1.70712 53.093 0.90292 52.2888 0.899967 51.2959V20.6959L1.27797 20.4079L1.50293 20.6959H52.4971L52.722 20.4079L53.1 20.6959Z" fill="#FAA682"/>
<path d="M50.4 20.6959V51.2959C50.3971 52.2888 49.5929 53.093 48.6 53.0959H2.7C1.70712 53.093 0.90292 52.2888 0.899967 51.2959V20.6959H49.7971L50.022 20.4079L50.4 20.6959Z" fill="#81D3FA"/>
<path d="M52.722 20.4079L52.4971 20.6959L27.9001 39.5959H26.1L1.50304 20.6959L1.27807 20.4079L9.90004 13.7029L21.762 4.49593L25.911 1.27396C26.5495 0.769926 27.4505 0.769926 28.0891 1.27396L32.2381 4.49593L44.1001 13.7029L52.722 20.4079Z" fill="#A4FAE8"/>
<path d="M44.1001 6.29582V27.1488L41.4001 29.2278L27.9001 39.5958H26.1L9.90004 27.1488V6.29582C9.90299 5.30294 10.7072 4.49874 11.7001 4.49579H42.3C43.2929 4.49885 44.0971 5.30294 44.1001 6.29582Z" fill="#A4FAE8"/>
<path d="M41.4001 6.29582V29.2278L27.9001 39.5958H26.1L9.90004 27.1488V6.29582C9.90299 5.30294 10.7072 4.49874 11.7001 4.49579H39.6C40.5929 4.49885 41.3971 5.30294 41.4001 6.29582Z" fill="#FAA682"/>
<path d="M52.749 52.3579C52.4131 52.8229 51.8738 53.0975 51.3 53.0958H2.7C2.12636 53.0975 1.58699 52.8229 1.25097 52.3579L21.87 36.3469L25.911 33.2059C26.5495 32.7019 27.4505 32.7019 28.0891 33.2059L32.1301 36.3469L52.749 52.3579Z" fill="#81D3FA"/>
<path d="M1.25107 52.3578C1.26552 52.3777 1.28619 52.3929 1.30054 52.4128C1.35728 52.4844 1.41929 52.5518 1.48595 52.6143C1.5255 52.6504 1.56695 52.6844 1.61019 52.716C1.66757 52.761 1.72769 52.8025 1.79023 52.8402C1.83885 52.8682 1.88652 52.896 1.93694 52.9194C2.01066 52.9535 2.0867 52.9821 2.16464 53.005C2.21052 53.0194 2.25461 53.0374 2.30144 53.0482C2.43211 53.0789 2.56585 53.0949 2.70011 53.0959H5.40011C5.26648 53.0947 5.13338 53.0788 5.00323 53.0482C4.95556 53.0375 4.91326 53.0194 4.86644 53.005C4.78849 52.9821 4.71245 52.9536 4.63873 52.9194C4.58831 52.896 4.54064 52.8682 4.49202 52.8402C4.42958 52.8025 4.36947 52.761 4.31199 52.716C4.26874 52.6844 4.22729 52.6504 4.18774 52.6143C4.12109 52.5518 4.05918 52.4844 4.00233 52.4128C3.98788 52.3929 3.96721 52.3777 3.95287 52.3578C3.7241 52.051 3.60039 51.6786 3.60007 51.2959V20.6959L3.97807 20.4079L12.6 13.7029V6.29582C12.603 5.30294 13.4072 4.49874 14.4001 4.49579H11.7001C10.7072 4.49874 9.90299 5.30294 9.90004 6.29582V13.7028L1.27807 20.4078L0.900072 20.6958V51.2958C0.901232 51.6777 1.02526 52.049 1.25381 52.3551L1.25107 52.3578Z" fill="white"/>
<path d="M28.35 1.47634L28.089 1.27384C27.4505 0.769804 26.5495 0.769804 25.9109 1.27384L21.7619 4.4958H24.4619L28.35 1.47634Z" fill="white"/>
<path d="M0 51.2959V39.5959V20.6959H1.80004V39.5959V51.2959H0Z" fill="white"/>
<path d="M0.558035 44.9239C0.609082 44.9498 0.663609 44.9681 0.720035 44.9779C0.77952 44.9879 0.839742 44.9939 0.90007 44.9959C1.13832 44.9924 1.36645 44.8992 1.53911 44.7349C1.62042 44.6488 1.68465 44.548 1.72811 44.4379C1.86384 44.1022 1.78991 43.718 1.53911 43.4569C1.45304 43.3756 1.35221 43.3114 1.24211 43.2679C1.13389 43.2218 1.01767 43.1973 0.90007 43.1959C0.661816 43.1993 0.433687 43.2926 0.261035 43.4569C-0.0870117 43.8118 -0.0870117 44.38 0.261035 44.7349L0.396035 44.8429C0.446238 44.8769 0.50066 44.9042 0.558035 44.9239Z" fill="#263238"/>
<path d="M53.9523 20.4591C53.9399 20.4059 53.9227 20.3538 53.9011 20.3035C53.8753 20.2558 53.8453 20.2106 53.8111 20.1685C53.7755 20.1169 53.7344 20.0692 53.6887 20.0263C53.6742 20.0138 53.668 19.9966 53.6527 19.9848L45.0001 13.2628V6.29585C45.0001 4.80473 43.7913 3.59585 42.3001 3.59585H32.5468L28.6416 0.563836C27.6767 -0.187945 26.3243 -0.187945 25.3593 0.563836L21.4534 3.59585H11.7001C10.209 3.59585 9.00007 4.80473 9.00007 6.29585V13.2628L0.348363 19.9848C0.132047 20.1567 0.00854297 20.4197 0.0144492 20.6958H0V40.4958C0 40.9929 0.402996 41.3957 0.899965 41.3957C1.39693 41.3957 1.79993 40.9928 1.79993 40.4958V22.0666L16.5483 33.5191C16.9411 33.8238 17.5068 33.7523 17.8115 33.3593C18.1162 32.9665 18.0446 32.4008 17.6517 32.0961L2.66857 20.461L9.00007 15.5417V22.496C9.00007 22.993 9.40307 23.3959 9.90003 23.3959C10.3971 23.3959 10.8 22.9929 10.8 22.496V6.29596C10.8 5.79888 11.203 5.39599 11.7 5.39599H42.2999C42.797 5.39599 43.1999 5.79899 43.1999 6.29596V22.496C43.1999 22.993 43.6028 23.3959 44.0999 23.3959C44.5969 23.3959 44.9998 22.9929 44.9998 22.496V15.5417L51.3313 20.461L36.3213 32.1169C35.9287 32.4218 35.8576 32.9874 36.1625 33.3801C36.4674 33.7728 37.0329 33.8439 37.4257 33.539L52.2001 22.0667V50.7902L28.6398 32.4922C27.6755 31.7415 26.3246 31.7415 25.3603 32.4922L1.80004 50.7901V47.6958C1.80004 47.1987 1.39704 46.7959 0.90007 46.7959C0.403102 46.7959 0 47.1988 0 47.6959V51.2959C0.00358594 51.5857 0.0543164 51.8729 0.150293 52.1464C-0.0563203 52.4579 -0.0466172 52.8653 0.174445 53.1667C0.395508 53.4681 0.781102 53.5997 1.14033 53.4964C1.59543 53.8215 2.1407 53.9962 2.7 53.9959H51.3C51.8613 53.9947 52.4081 53.8175 52.8633 53.4892C52.94 53.5128 53.0197 53.5258 53.0999 53.5279C53.4287 53.5298 53.7318 53.3507 53.8887 53.0619C54.0457 52.773 54.031 52.4212 53.8506 52.1465C53.9462 51.873 53.9966 51.5857 54 51.296V20.6959C54 20.677 53.9901 20.6608 53.9892 20.6429C53.9837 20.5804 53.9713 20.5188 53.9523 20.4591ZM26.46 1.98397C26.7743 1.73422 27.2194 1.73422 27.5337 1.98397L29.6099 3.59585H24.39L26.46 1.98397ZM26.46 33.9133C26.7745 33.665 27.2183 33.665 27.5328 33.9133L51.0768 52.1959H2.92328L26.46 33.9133Z" fill="#263238"/>
<path d="M18 11.6959H36.0001C36.4971 11.6959 36.9 11.2929 36.9 10.7959C36.9 10.2988 36.4971 9.89594 36.0001 9.89594H18C17.503 9.89594 17.1001 10.2989 17.1001 10.7959C17.1001 11.293 17.503 11.6959 18 11.6959Z" fill="#263238"/>
<path d="M18 17.0958H36.0001C36.4971 17.0958 36.9 16.6928 36.9 16.1959C36.9 15.6988 36.4971 15.2959 36.0001 15.2959H18C17.503 15.2959 17.1001 15.6989 17.1001 16.1959C17.1001 16.6929 17.503 17.0958 18 17.0958Z" fill="#263238"/>
<path d="M36.0001 20.6959H27.9001C27.403 20.6959 27.0001 21.0989 27.0001 21.5959C27.0001 22.093 27.403 22.4959 27.9001 22.4959H36.0001C36.4971 22.4959 36.9 22.0929 36.9 21.5959C36.9 21.0988 36.4971 20.6959 36.0001 20.6959Z" fill="#263238"/>
</svg>
