<svg width="11" height="11" viewBox="0 0 11 11" fill="none" xmlns="http://www.w3.org/2000/svg">
<path d="M5.50009 0.250015C4.80974 0.250015 4.25009 0.809659 4.25009 1.50002C4.25009 2.19037 4.80974 2.75002 5.50009 2.75002C6.19045 2.75002 6.75009 2.19037 6.75009 1.50002C6.75009 0.809659 6.19045 0.250015 5.50009 0.250015Z" fill="#263238"/>
<path d="M5.50009 8.25002C4.80974 8.25002 4.25009 8.80966 4.25009 9.50002C4.25009 10.1904 4.80974 10.75 5.50009 10.75C6.19045 10.75 6.75009 10.1904 6.75009 9.50002C6.75009 8.80966 6.19045 8.25002 5.50009 8.25002Z" fill="#263238"/>
<path d="M9.50009 4.25002C8.80974 4.25002 8.25009 4.80966 8.25009 5.50002C8.25009 6.19037 8.80974 6.75002 9.50009 6.75002C10.1904 6.75002 10.7501 6.19037 10.7501 5.50002C10.7501 4.80966 10.1904 4.25002 9.50009 4.25002Z" fill="#263238"/>
<path d="M1.50009 4.25002C0.809736 4.25002 0.250092 4.80966 0.250092 5.50002C0.250092 6.19037 0.809736 6.75002 1.50009 6.75002C2.19045 6.75002 2.75009 6.19037 2.75009 5.50002C2.75009 4.80966 2.19045 4.25002 1.50009 4.25002Z" fill="#263238"/>
</svg>
