<svg width="17" height="17" viewBox="0 0 17 17" fill="none" xmlns="http://www.w3.org/2000/svg">
<g clip-path="url(#clip0)">
<path d="M12.2124 4.78775C11.7242 4.2996 10.9328 4.2996 10.4446 4.78775C9.95645 5.27591 9.95645 6.06736 10.4446 6.55552C10.9328 7.04368 11.7242 7.04368 12.2124 6.55552C12.7005 6.06736 12.7005 5.27591 12.2124 4.78775Z" fill="#263238"/>
</g>
<g clip-path="url(#clip1)">
<path d="M6.55551 10.4446C6.06736 9.95645 5.2759 9.95645 4.78775 10.4446C4.29959 10.9328 4.29959 11.7242 4.78775 12.2124C5.2759 12.7005 6.06736 12.7005 6.55551 12.2124C7.04367 11.7242 7.04367 10.9328 6.55551 10.4446Z" fill="#263238"/>
</g>
<g clip-path="url(#clip2)">
<path d="M12.2124 10.4446C11.7242 9.95645 10.9328 9.95645 10.4446 10.4446C9.95645 10.9328 9.95645 11.7242 10.4446 12.2124C10.9328 12.7005 11.7242 12.7005 12.2124 12.2124C12.7005 11.7242 12.7005 10.9328 12.2124 10.4446Z" fill="#263238"/>
</g>
<g clip-path="url(#clip3)">
<path d="M6.55551 4.78775C6.06736 4.2996 5.2759 4.2996 4.78775 4.78775C4.29959 5.27591 4.29959 6.06736 4.78775 6.55552C5.2759 7.04368 6.06736 7.04368 6.55551 6.55552C7.04367 6.06736 7.04367 5.27591 6.55551 4.78775Z" fill="#263238"/>
</g>
<defs>
<clipPath id="clip0">
<rect width="3" height="3" fill="white" transform="translate(11.3284 7.79289) rotate(-135)"/>
</clipPath>
<clipPath id="clip1">
<rect width="3" height="3" fill="white" transform="translate(5.67157 13.4497) rotate(-135)"/>
</clipPath>
<clipPath id="clip2">
<rect width="3" height="3" fill="white" transform="translate(11.3284 13.4497) rotate(-135)"/>
</clipPath>
<clipPath id="clip3">
<rect width="3" height="3" fill="white" transform="translate(5.67157 7.79289) rotate(-135)"/>
</clipPath>
</defs>
</svg>
