<svg width="7" height="11" viewBox="0 0 7 11" fill="none" xmlns="http://www.w3.org/2000/svg">
<path d="M1.50006 0.25C0.809705 0.25 0.250061 0.809644 0.250061 1.5C0.250061 2.19036 0.809705 2.75 1.50006 2.75C2.19042 2.75 2.75006 2.19036 2.75006 1.5C2.75006 0.809644 2.19042 0.25 1.50006 0.25Z" fill="#263238"/>
<path d="M1.50006 8.25C0.809705 8.25 0.250061 8.80964 0.250061 9.5C0.250061 10.1904 0.809705 10.75 1.50006 10.75C2.19042 10.75 2.75006 10.1904 2.75006 9.5C2.75006 8.80964 2.19042 8.25 1.50006 8.25Z" fill="#263238"/>
<path d="M5.50006 4.25C4.80971 4.25 4.25006 4.80964 4.25006 5.5C4.25006 6.19036 4.80971 6.75 5.50006 6.75C6.19042 6.75 6.75006 6.19036 6.75006 5.5C6.75006 4.80964 6.19042 4.25 5.50006 4.25Z" fill="#263238"/>
</svg>
