<svg width="11" height="11" viewBox="0 0 11 11" fill="none" xmlns="http://www.w3.org/2000/svg">
<path d="M5.50009 0.25C4.80974 0.25 4.25009 0.809644 4.25009 1.5C4.25009 2.19036 4.80974 2.75 5.50009 2.75C6.19045 2.75 6.75009 2.19036 6.75009 1.5C6.75009 0.809644 6.19045 0.25 5.50009 0.25Z" fill="white"/>
<path d="M5.50009 8.25C4.80974 8.25 4.25009 8.80964 4.25009 9.5C4.25009 10.1904 4.80974 10.75 5.50009 10.75C6.19045 10.75 6.75009 10.1904 6.75009 9.5C6.75009 8.80964 6.19045 8.25 5.50009 8.25Z" fill="white"/>
<path d="M9.50009 4.25C8.80974 4.25 8.25009 4.80964 8.25009 5.5C8.25009 6.19036 8.80974 6.75 9.50009 6.75C10.1904 6.75 10.7501 6.19036 10.7501 5.5C10.7501 4.80964 10.1904 4.25 9.50009 4.25Z" fill="white"/>
</svg>
