<svg width="54" height="54" viewBox="0 0 54 54" fill="none" xmlns="http://www.w3.org/2000/svg">
<path d="M27 53.0182C41.3694 53.0182 53.0182 41.3695 53.0182 27C53.0182 12.6306 41.3694 0.981812 27 0.981812C12.6305 0.981812 0.981808 12.6306 0.981808 27C0.981808 41.3695 12.6305 53.0182 27 53.0182Z" fill="#A4FAE8"/>
<path d="M25.5272 53.0182C39.0833 53.0182 50.0727 41.3695 50.0727 27C50.0727 12.6306 39.0833 0.981812 25.5272 0.981812C11.9712 0.981812 0.981808 12.6306 0.981808 27C0.981808 41.3695 11.9712 53.0182 25.5272 53.0182Z" fill="#81D3FA"/>
<path d="M27 53.0182C27.2542 53.0182 27.5054 53.0062 27.7578 52.999C14.5333 52.597 3.92723 41.1153 3.92723 27C3.92723 12.8847 14.5333 1.40305 27.7578 1.00101C27.5054 0.993835 27.2541 0.981812 27 0.981812C12.6305 0.981812 0.981808 12.6305 0.981808 27C0.981808 41.3695 12.6305 53.0182 27 53.0182Z" fill="white"/>
<path d="M19.256 41.7786L11.4923 46.0134C11.0456 46.2623 10.6278 46.5598 10.2464 46.9004C19.8892 55.0252 33.9714 55.061 43.6555 46.9856C43.2373 46.6266 42.7779 46.3186 42.287 46.0681L33.9741 41.9118C32.8999 41.3748 32.2214 40.2768 32.2214 39.0759V35.814C32.5006 35.4907 32.763 35.1532 33.0078 34.803C34.1293 33.209 35.0006 31.453 35.5916 29.5957C36.6864 29.2627 37.4369 28.2558 37.443 27.1116V23.6305C37.4401 22.893 37.1237 22.1916 36.5728 21.7014V16.6686C36.5728 16.6686 37.6061 8.83638 27 8.83638C16.3939 8.83638 17.4272 16.6686 17.4272 16.6686V21.7014C16.8763 22.1916 16.5599 22.893 16.557 23.6305V27.1116C16.5598 27.9988 17.0131 28.8238 17.7603 29.3019C18.3381 31.6705 19.4109 33.89 20.9082 35.814V38.995C20.9082 40.1553 20.2746 41.2229 19.256 41.7786Z" fill="#A4FAE8"/>
<path d="M41.8314 46.0012L30.8948 41.8449C29.8206 41.3079 29.1421 40.21 29.1421 39.009V35.7472C29.4212 35.4238 29.6837 35.0863 29.9284 34.7361C31.0499 33.1422 31.9213 31.3861 32.5122 29.5288C33.607 29.1959 34.3575 28.1889 34.3636 27.0447V23.5636C34.3608 22.8262 34.0443 22.1247 33.4934 21.6345V16.6017C33.4934 16.6017 34.5268 8.76952 23.9206 8.76952C23.2893 8.76952 22.7019 8.79894 22.1504 8.85125C22.2148 9.36109 21.9286 9.85068 21.4528 10.0447C20.1829 10.5656 18.954 11.1813 17.7763 11.8863C18.2616 11.9712 18.6147 12.3937 18.6121 12.8864C18.8236 16.501 17.5802 20.7451 16.4625 24.4397C16.4969 25.8945 16.5287 27.3495 16.571 28.8043C16.6785 29.1401 16.7863 29.4757 16.8917 29.8119C17.0947 29.9353 17.2538 30.1193 17.3468 30.3381C17.7952 31.4062 18.2952 32.5008 18.729 33.6156C19.3203 33.4508 19.9409 33.7572 20.1695 34.3267C20.5523 35.4077 20.792 36.5341 20.8825 37.6772C20.9288 38.0205 20.7609 38.3574 20.4589 38.5272C19.913 40.4181 18.9912 42.1793 17.7487 43.7055C17.4793 43.9679 17.0921 44.0697 16.7284 43.9737C16.3648 43.8777 16.0782 43.598 15.9735 43.2369C15.9208 43.0543 15.878 42.8691 15.8453 42.682C15.1153 43.1156 14.3326 43.4945 13.4877 43.9676C13.0339 44.2217 9.58658 45.8042 9.50052 46.1968C9.01336 48.4181 16.801 51.173 20.7106 52.7306C21.7751 52.8701 22.8472 52.9438 23.9207 52.9513C30.2575 52.9513 38.6871 50.6837 43.2001 46.9187C42.7818 46.5597 42.3224 46.2517 41.8314 46.0012Z" fill="#FAA682"/>
<path d="M27 54C12.0883 54 0 41.9117 0 27C0 12.0883 12.0883 0 27 0C41.9117 0 54 12.0883 54 27C53.9828 41.9045 41.9045 53.9828 27 54ZM27 1.96362C13.1728 1.96362 1.96362 13.1728 1.96362 27C1.96362 40.8272 13.1728 52.0364 27 52.0364C40.8272 52.0364 52.0364 40.8272 52.0364 27C52.0206 13.1794 40.8206 1.97944 27 1.96362Z" fill="#263238"/>
<path d="M27 54C20.6376 53.9964 14.4804 51.748 9.61295 47.6508C9.39378 47.466 9.26638 47.1947 9.26395 46.9082C9.26153 46.6216 9.3845 46.3482 9.6005 46.1599C10.0359 45.7724 10.5128 45.434 11.0224 45.1512L18.7859 40.9171C19.4894 40.5333 19.9269 39.796 19.9268 38.9948V36.1538C18.525 34.2751 17.4944 32.1462 16.8903 29.8813C16.0578 29.2025 15.5748 28.1854 15.5748 27.1113V23.6308C15.5777 22.7763 15.8865 21.9511 16.4454 21.3047V16.7225C16.2757 14.6343 16.9405 12.564 18.294 10.9648C20.1033 8.90061 23.0325 7.85458 27 7.85458C30.9675 7.85458 33.8967 8.90061 35.7059 10.965C37.0594 12.5641 37.7241 14.6344 37.5545 16.7226V21.3047C38.1132 21.9511 38.4222 22.7763 38.4251 23.6308V27.1113C38.4268 28.4937 37.6289 29.7522 36.3781 30.3405C35.7637 32.13 34.899 33.8235 33.8094 35.3703C33.5994 35.6666 33.3962 35.9351 33.2035 36.1728V39.0761C33.2008 39.9057 33.6702 40.6647 34.4135 41.0331L42.7263 45.1896C43.2868 45.4744 43.8111 45.8253 44.2882 46.2347C44.5102 46.4218 44.638 46.6975 44.6372 46.9877C44.6365 47.278 44.5073 47.553 44.2843 47.739C39.4315 51.7816 33.3161 53.9967 27 54ZM11.8585 46.9336C20.7592 53.7005 33.0691 53.7409 42.0139 47.0323C41.9583 47.0026 41.9037 46.9738 41.848 46.946L33.5352 42.7896C32.1245 42.0908 31.2343 40.6504 31.2397 39.0762V35.8143C31.2397 35.5762 31.3262 35.3462 31.4833 35.1672C31.7397 34.8688 31.9809 34.5578 32.2061 34.2353C33.27 32.7228 34.0965 31.0566 34.6568 29.2946C34.7552 28.9899 34.9961 28.7523 35.3021 28.658C35.9834 28.4489 36.4518 27.824 36.4613 27.1114V23.6309C36.4597 23.1709 36.2607 22.7337 35.9147 22.4305C35.7084 22.2444 35.5906 21.9796 35.5906 21.7018V16.669C35.5906 16.6261 35.5935 16.5832 35.5993 16.5406C35.7139 14.9809 35.2162 13.438 34.2118 12.2393C32.7891 10.6334 30.3633 9.8184 26.9998 9.8184C23.6229 9.8184 21.1904 10.6401 19.7704 12.2595C18.7683 13.4506 18.276 14.9888 18.4003 16.5406C18.4061 16.5832 18.4089 16.6261 18.4089 16.669V21.7018C18.4089 21.9796 18.2911 22.2444 18.0848 22.4305C17.7389 22.7337 17.5399 23.1709 17.5383 23.6309V27.1114C17.5403 27.6657 17.8247 28.1807 18.2929 28.4777C18.5074 28.6166 18.6594 28.8337 18.7167 29.0827C19.2632 31.3 20.2668 33.3785 21.6632 35.1855C21.8096 35.3625 21.8898 35.5848 21.8905 35.8146V38.9949C21.8908 40.515 21.0603 41.9138 19.7255 42.6412L11.9621 46.8753C11.9276 46.8943 11.8931 46.9135 11.8585 46.9336Z" fill="#263238"/>
</svg>
