<svg width="54" height="54" viewBox="0 0 54 54" fill="none" xmlns="http://www.w3.org/2000/svg">
<path d="M53.046 29.106L44.6941 52.506C44.5599 52.8623 44.2197 53.0987 43.839 53.1H0.899965V19.8C0.901442 19.3035 1.30349 18.9014 1.79993 18.9H44.1C45.0928 18.9028 45.897 19.707 45.9 20.7V27.9001H52.2C52.4925 27.9019 52.7662 28.0452 52.9342 28.2847C53.1023 28.5242 53.1439 28.8303 53.046 29.106Z" fill="#A4FAE8"/>
<path d="M50.346 29.106L41.9941 52.506C41.8599 52.8623 41.5197 53.0987 41.139 53.1H0.899965V19.8C0.901442 19.3035 1.30349 18.9014 1.79993 18.9H41.4C42.3928 18.9028 43.197 19.707 43.2 20.7V27.9001H49.5C49.7925 27.9019 50.0662 28.0452 50.2342 28.2847C50.4023 28.5242 50.4439 28.8303 50.346 29.106Z" fill="#81D3FA"/>
<path d="M45.9 19.8V27.9H9.90004V18.9H45C45.4965 18.9015 45.8985 19.3035 45.9 19.8Z" fill="#81D3FA"/>
<path d="M9.90004 18.9V27.9L5.238 28.674C4.8118 28.7482 4.39404 28.5051 4.24797 28.098L0.899965 18.9H9.90004Z" fill="#81D3FA"/>
<path d="M9.90004 27.9L0.899965 53.1V18.9L4.24797 28.098C4.39404 28.5052 4.8118 28.7482 5.238 28.674L9.90004 27.9Z" fill="#81D3FA"/>
<path d="M20.7 36.9C22.1912 36.9 23.4 35.6912 23.4 34.2C23.4 32.7089 22.1912 31.5 20.7 31.5C19.2089 31.5 18 32.7089 18 34.2C18 35.6912 19.2089 36.9 20.7 36.9Z" fill="#A4FAE8"/>
<path d="M36.9 36.9C38.3912 36.9 39.6 35.6912 39.6 34.2C39.6 32.7089 38.3912 31.5 36.9 31.5C35.4089 31.5 34.2 32.7089 34.2 34.2C34.2 35.6912 35.4089 36.9 36.9 36.9Z" fill="#A4FAE8"/>
<path d="M33.3 1.80002V27.9001H9.90004V1.80002C9.90151 1.30358 10.3036 0.901426 10.8 0.900055H32.4C32.8964 0.901426 33.2986 1.30347 33.3 1.80002Z" fill="#A4FAE8"/>
<path d="M37.8 6.29996V27.9H14.4V6.29996C14.4014 5.80352 14.8035 5.40136 15.2999 5.39999H36.8999C37.3965 5.40147 37.7985 5.80352 37.8 6.29996Z" fill="#81D3FA"/>
<path d="M42.3 10.8V27.9H18.9V10.8C18.9015 10.3035 19.3035 9.9014 19.8 9.90002H41.4C41.8965 9.9014 42.2986 10.3035 42.3 10.8Z" fill="#A4FAE8"/>
<path d="M30.6 1.80002V27.9001H9.90004V1.80002C9.90151 1.30358 10.3036 0.901426 10.8 0.900055H29.7C30.1964 0.901426 30.5986 1.30347 30.6 1.80002Z" fill="#FAA682"/>
<path d="M35.1 6.29996V27.9H14.4V6.29996C14.4014 5.80352 14.8035 5.40136 15.2999 5.39999H34.1999C34.6965 5.40147 35.0985 5.80352 35.1 6.29996Z" fill="#A4FAE8"/>
<path d="M39.6 10.8V27.9H18.9V10.8C18.9015 10.3035 19.3035 9.9014 19.8 9.90002H38.7C39.1965 9.9014 39.5986 10.3035 39.6 10.8Z" fill="#FAA682"/>
<path d="M30.6 27.9001C34.5764 27.9001 37.8 24.6765 37.8 20.7C37.8 16.7236 34.5764 13.5 30.6 13.5C26.6235 13.5 23.3999 16.7236 23.3999 20.7C23.3999 24.6765 26.6235 27.9001 30.6 27.9001Z" fill="#81D3FA"/>
<path d="M30.6 22.5C32.0911 22.5 33.3 21.2911 33.3 19.8C33.3 18.3088 32.0911 17.1 30.6 17.1C29.1088 17.1 27.9 18.3088 27.9 19.8C27.9 21.2911 29.1088 22.5 30.6 22.5Z" fill="#FAA682"/>
<path d="M34.2 25.578V26.928C31.975 28.224 29.2251 28.224 27 26.928V25.578C27.1544 23.7391 28.7595 22.3668 30.6 22.5C31.5279 22.4871 32.4292 22.8099 33.138 23.409C33.7979 23.9373 34.1874 24.7327 34.2 25.578Z" fill="#81D3FA"/>
<path d="M3.59997 19.8V18.9H1.80004H0.899965V19.8V53.1H3.59997V19.8Z" fill="white"/>
<path d="M13.5 0.899963H10.8C10.3036 0.90144 9.90141 1.30349 9.90004 1.79993V27.9H12.6V1.80003C12.6014 1.30349 13.0036 0.90144 13.5 0.899963Z" fill="white"/>
<path d="M1.80004 25.2V36.9V53.1H0V36.9V25.2H1.80004Z" fill="white"/>
<path d="M0.899966 33.3C1.13822 33.2964 1.36635 33.2031 1.539 33.0389C1.88705 32.684 1.88705 32.1159 1.539 31.761L1.40411 31.6529C1.3539 31.6187 1.29938 31.5914 1.2419 31.5715C1.19085 31.5456 1.13611 31.5276 1.07968 31.5179C1.02031 31.5077 0.960188 31.5017 0.899966 31.4998C0.661712 31.5031 0.433477 31.5963 0.260931 31.7609C-0.0788897 32.1191 -0.0788897 32.6806 0.260931 33.0388C0.346888 33.1201 0.44761 33.1843 0.557614 33.2278C0.665931 33.2741 0.782263 33.2986 0.899966 33.3Z" fill="#263238"/>
<path d="M0.16432 53.6185C0.332965 53.8576 0.607289 53.9999 0.899965 54H43.8421C44.6026 53.9987 45.2808 53.5206 45.5375 52.8047L53.8945 29.4056C54.0917 28.8544 54.0082 28.2416 53.6709 27.763C53.3336 27.2843 52.7847 26.9998 52.1991 27H46.8001V19.8C46.7989 18.8063 45.9938 18.0011 45 17.9999H43.2V10.8C43.1988 9.80638 42.3937 9.00113 41.4 8.99996H38.7V6.29996C38.6988 5.30634 37.8937 4.50109 36.8999 4.49993H34.1999V1.79993C34.1989 0.806309 33.3936 0.00116016 32.4 0H10.8C9.80638 0.00116016 9.00113 0.806309 8.99996 1.80004V18H0.899965C0.845438 18.0056 0.791648 18.0165 0.739231 18.0324C0.689766 18.0355 0.640617 18.0429 0.592313 18.0545C0.585246 18.0571 0.580816 18.063 0.573855 18.0656C0.510363 18.0946 0.450668 18.131 0.395824 18.1742C0.35427 18.1977 0.314613 18.2244 0.277383 18.2541C0.238676 18.2975 0.204398 18.3446 0.175078 18.3947C0.139219 18.4384 0.107578 18.4853 0.0805781 18.5349C0.0647578 18.5817 0.0527344 18.6298 0.0447187 18.6786C0.023625 18.7432 0.0102305 18.81 0.00453516 18.8776C0.00432422 18.8854 0 18.892 0 18.8999V28.7999C0 29.297 0.402996 29.6999 0.899965 29.6999C1.39693 29.6999 1.79993 29.297 1.79993 28.7999V24.009L3.3982 28.4044C3.69468 29.2197 4.53062 29.7076 5.38629 29.5646L8.53727 29.0394L1.79993 47.9041V36C1.79993 35.5029 1.39693 35.1 0.899965 35.1C0.402996 35.1 0 35.5029 0 36V53.0999H0.00611719C0.00390234 53.285 0.059168 53.4662 0.16432 53.6185ZM45 19.8V27H43.2V19.8H45ZM41.4 10.8V27H35.68C38.3557 24.8456 39.3814 21.2376 38.2392 17.9977C37.0969 14.7578 34.0353 12.591 30.6001 12.591C27.1648 12.591 24.1031 14.7579 22.961 17.9977C21.8187 21.2375 22.8444 24.8455 25.5202 27H19.8002V10.8H41.4ZM35.051 25.1541C34.9344 24.2081 34.4624 23.3419 33.7307 22.7312C33.5526 22.5799 33.3625 22.4433 33.1624 22.3227C34.5546 20.9126 34.5456 18.6424 33.1422 17.2434C31.7388 15.8444 29.4687 15.8424 28.0629 17.239C26.6571 18.6355 26.644 20.9056 28.0338 22.3181C27.0052 22.9256 26.3108 23.9701 26.1484 25.1536C24.3447 23.3525 23.804 20.6419 24.7786 18.2866C25.7533 15.9313 28.0512 14.3953 30.6002 14.3954C33.1491 14.3955 35.447 15.9317 36.4214 18.2871C37.3958 20.6426 36.855 23.3532 35.051 25.1541ZM28.8 19.8C28.8 18.8058 29.6059 17.9999 30.6001 17.9999C31.5942 17.9999 32.4001 18.8058 32.4001 19.8C32.4001 20.7941 31.5942 21.6 30.6001 21.6C29.6063 21.5988 28.8011 20.7937 28.8 19.8ZM27.9 26.3834V25.578C28.0603 24.2399 29.2582 23.2736 30.6 23.4C31.3168 23.387 32.0138 23.6357 32.5603 24.0996C33.0166 24.4562 33.2882 24.999 33.3 25.578V26.3834C31.5939 27.2055 29.6061 27.2055 27.9 26.3834ZM36.9 8.99996H19.8C18.8063 9.00113 18.0011 9.80627 17.9999 10.8V27H15.2999V6.29996H36.8999V8.99996H36.9ZM10.8 1.80004H32.4V4.50004H15.3C14.3064 4.5012 13.5012 5.30634 13.5 6.30007V27H10.8V1.80004ZM5.09024 27.7893L2.1851 19.8001H9.00007V27.1376L5.09024 27.7893ZM10.5341 28.8H52.1991L43.8421 52.2H2.17709L10.5341 28.8Z" fill="#263238"/>
<path d="M36.9 30.6C35.0885 30.5961 33.5574 31.9417 33.3288 33.7388C33.1001 35.5359 34.2453 37.2221 36.0001 37.6721V39.5999C35.9995 40.0968 35.597 40.4995 35.1001 40.4999H22.5C22.0031 40.4994 21.6004 40.0968 21.6 39.5999V37.6721C23.3553 37.2189 24.4998 35.5311 24.2713 33.7328C24.0429 31.9345 22.5128 30.5865 20.7 30.5865C18.8872 30.5865 17.3572 31.9345 17.1288 33.7328C16.9003 35.5311 18.0448 37.2189 19.8001 37.6721V39.5999C19.8017 41.0904 21.0096 42.2983 22.5001 42.2999H35.1001C36.5906 42.2983 37.7985 41.0904 37.8001 39.5999V37.6721C39.5549 37.222 40.7001 35.5359 40.4714 33.7388C40.2425 31.9417 38.7116 30.5962 36.9 30.6ZM18.9 34.2C18.8956 33.3254 19.5205 32.574 20.3813 32.4192C21.2421 32.2644 22.0898 32.7508 22.3903 33.5723C22.6909 34.3937 22.3574 35.3123 21.5999 35.7497V35.1C21.5999 34.6029 21.1969 34.2 20.6999 34.2C20.2029 34.2 19.8 34.6029 19.8 35.1V35.7496C19.2451 35.4306 18.9021 34.8401 18.9 34.2ZM37.8 35.7496V35.1C37.8 34.6029 37.397 34.2 36.9 34.2C36.4031 34.2 36.0001 34.6029 36.0001 35.1V35.7496C35.2945 35.3423 34.9506 34.5118 35.1614 33.7249C35.3722 32.938 36.0854 32.3908 36.9 32.3908C37.7147 32.3908 38.4279 32.938 38.6387 33.7249C38.8495 34.5118 38.5056 35.3423 37.8 35.7496Z" fill="#263238"/>
</svg>
